<?xml version="1.0" ?>
<svg xmlns="http://www.w3.org/2000/svg" style="height: 50px;margin-bottom:-11px;" x="0px" y="0px" viewBox="0 0 512 512">
          <g transform="translate(0.000000,512.000000) scale(0.100000,-0.100000)" fill="#000000" stroke="none">
            <path d="M2220 4124 c-107 -29 -173 -87 -189 -167 l-7 -32 -219 -5 c-211 -5
                    -222 -6 -275 -31 -84 -40 -144 -99 -185 -182 l-36 -72 3 -580 3 -580 25 -48
                    c31 -62 106 -132 178 -165 l57 -27 980 0 980 0 57 27 c72 34 136 93 174 160
                    l29 53 0 585 0 585 -28 58 c-37 74 -110 147 -184 184 -58 28 -59 28 -280 31
                    l-223 3 0 26 c0 63 -66 133 -160 170 -64 24 -615 31 -700 7z m501 -543 c156
                    -49 296 -183 350 -336 93 -265 -25 -552 -278 -679 -354 -177 -783 93 -783 492
                    0 151 53 275 165 388 146 147 345 197 546 135z"></path>
            <path d="M2469 3387 c-103 -29 -171 -88 -218 -187 -22 -46 -26 -69 -26 -140 1
                    -71 5 -94 28 -141 32 -67 99 -132 165 -162 72 -32 182 -35 256 -7 76 29 147
                    94 183 169 24 49 28 68 28 146 0 78 -4 97 -28 147 -68 138 -241 216 -388 175z"></path>
            <path d="M935 2445 c-251 -113 -355 -235 -343 -405 14 -186 174 -352 493 -510
                    274 -135 591 -229 997 -295 l37 -6 3 -124 3 -125 245 211 c135 115 251 216
                    257 222 10 10 -40 58 -243 232 -140 121 -259 222 -265 223 -5 2 -9 -43 -9
                    -108 l0 -112 -77 6 c-43 3 -127 8 -188 11 -475 27 -885 140 -1043 288 -87 82
                    -103 148 -58 242 40 86 139 178 302 282 44 28 -16 11 -111 -32z"></path>
            <path d="M4090 2464 c119 -73 241 -187 278 -260 29 -58 35 -97 21 -144 -66
                    -220 -580 -383 -1281 -407 l-188 -6 0 -214 c0 -204 1 -213 19 -213 11 0 99 13
                    195 30 623 105 1152 342 1325 593 118 172 85 365 -84 494 -67 51 -242 139
                    -296 149 l-34 6 45 -28z"></path>
          </g>
</svg>